<?xml version="1.0" encoding="UTF-8"?>
<svg width="107px" height="83px" viewBox="0 0 107 83" version="1.1" xmlns="http://www.w3.org/2000/svg" xmlns:xlink="http://www.w3.org/1999/xlink">
    <!-- Generator: Sketch 49.3 (51167) - http://www.bohemiancoding.com/sketch -->
    <title>Group</title>
    <desc>Created with Sketch.</desc>
    <defs></defs>
    <g id="Page-1" stroke="none" stroke-width="1" fill="none" fill-rule="evenodd">
        <g id="Desktop-Landscape" transform="translate(-170.000000, -40.000000)" fill="#FEFEFE">
            <g id="Page-1" transform="translate(140.000000, -4.000000)">
                <g id="Group" transform="translate(30.000000, 44.000000)">
                    <path d="M100.103088,71.3467407 C100.103088,77.1472888 95.351419,81.8524096 89.5,81.8524096 C83.6464942,81.8524096 78.8969115,77.1472888 78.8969115,71.3467407 L78.8969115,11.8014028 C78.8969115,6.00085472 83.6464942,1.2936474 89.5,1.2936474 C95.351419,1.2936474 100.103088,6.00085472 100.103088,11.8014028 L100.103088,71.3467407 Z M89.5,0 C79.8359766,0 72,7.83699942 72,17.4955378 L72,65.5086352 C72,75.1713467 79.8359766,83 89.5,83 C99.1661102,83 107,75.1713467 107,65.5086352 L107,17.4955378 C107,7.83699942 99.1661102,0 89.5,0 Z" id="Fill-4"></path>
                    <path d="M0.561315205,0 C0.249248268,0 0,0.260966898 0,0.580390381 C0,0.903989335 0.249248268,1.16078076 0.561315205,1.16078076 L4.94038436,1.16078076 L4.94038436,81.8392192 L0.561315205,81.8392192 C0.249248268,81.8392192 0,82.1001861 0,82.4216974 C0,82.7432086 0.249248268,83 0.561315205,83 L16.0167342,83 C16.3288012,83 16.576023,82.7432086 16.576023,82.4216974 C16.576023,82.1001861 16.3288012,81.8392192 16.0167342,81.8392192 L11.6376651,81.8392192 L11.6376651,42.4833233 L19.5548438,42.4833233 C21.9845078,42.4833233 23.6785854,44.7276386 23.9278337,50.3332076 L23.9278337,51.0555639 C23.9278337,51.4313563 24.221663,51.7403411 24.5884429,51.7403411 C24.9491437,51.7403411 25.2470258,51.4313563 25.2470258,51.0555639 L25.2470258,50.5565952 L25.2470258,50.195417 L25.2470258,42.4770601 L25.2470258,41.0344351 L25.2470258,33.3160781 L25.2470258,32.9548999 L25.2470258,32.4559312 C25.2470258,32.0801388 24.9491437,31.771154 24.5884429,31.771154 C24.221663,31.771154 23.9278337,32.0801388 23.9278337,32.4559312 L23.9278337,33.1761998 C23.6785854,38.7838565 21.9845078,41.0281718 19.5548438,41.0281718 L11.6376651,41.0281718 L11.6376651,1.16078076 L20.1343967,1.16078076 C22.7768336,1.30274676 29.3667146,2.48440487 29.3768466,10.7727136 L29.3768466,14.687217 C29.3768466,15.1486065 29.7395738,15.5264866 30.1894365,15.5264866 C30.6372728,15.5264866 31,15.1486065 31,14.687217 L31,14.2341785 L31,0 L0.561315205,0 Z" id="Fill-6"></path>
                    <path d="M67.1894895,67.4797766 C66.7376299,67.4797766 66.3749265,67.8534812 66.3749265,68.3148707 L66.3749265,72.2293742 C66.3668214,80.5030687 59.7996601,81.6930778 57.1472645,81.841307 L48.6369044,81.841307 L48.6369044,1.1628685 L53.0156873,1.1628685 C53.3257076,1.1628685 53.5789921,0.9019016 53.5789921,0.580390381 C53.5789921,0.260966898 53.3257076,0 53.0156873,0 L37.5612785,0 C37.249232,0 37,0.260966898 37,0.580390381 C37,0.9019016 37.249232,1.1628685 37.5612785,1.1628685 L41.9400614,1.1628685 L41.9400614,81.841307 L37.5612785,81.841307 C37.249232,81.841307 37,82.1022739 37,82.4216974 C37,82.7432086 37.249232,83 37.5612785,83 L68,83 L68,68.7679092 L68,68.3148707 C68,67.8534812 67.6372966,67.4797766 67.1894895,67.4797766" id="Fill-8"></path>
                </g>
            </g>
        </g>
    </g>
</svg>