<?xml version="1.0" encoding="UTF-8"?>
<svg width="24px" height="17px" viewBox="0 0 24 17" version="1.1" xmlns="http://www.w3.org/2000/svg" xmlns:xlink="http://www.w3.org/1999/xlink">
    <!-- Generator: Sketch 49.3 (51167) - http://www.bohemiancoding.com/sketch -->
    <title>mail</title>
    <desc>Created with Sketch.</desc>
    <defs></defs>
    <g id="Page-1" stroke="none" stroke-width="1" fill="none" fill-rule="evenodd">
        <g id="Desktop-Landscape-Copy-3" transform="translate(-82.000000, -742.000000)" fill="#FFFFFF" fill-rule="nonzero">
            <g id="mail" transform="translate(82.000000, 742.000000)">
                <g id="Group" transform="translate(4.000000, 9.000000)">
                    <path d="M16.2787143,5.58 C16.1791429,5.58 16.0795714,5.54142857 16.0018571,5.46342857 L11.3438571,0.836571429 C11.1811429,0.675428571 11.1730476,0.403714286 11.3260476,0.231428571 C11.4790476,0.0574285714 11.7340476,0.0497142857 11.898381,0.212571429 L16.556381,4.83942857 C16.7190952,5.00057143 16.7271905,5.27228571 16.5741905,5.44457143 C16.4940476,5.53457143 16.3871905,5.58 16.2787143,5.58 Z" id="Shape"></path>
                    <path d="M0.730190476,5.58 C0.62252381,5.58 0.514857143,5.53457143 0.434714286,5.44457143 C0.281714286,5.27228571 0.289809524,5.00057143 0.45252381,4.83942857 L5.11214286,0.212571429 C5.27566667,0.0514285714 5.53228571,0.0582857143 5.68447619,0.231428571 C5.83747619,0.403714286 5.82938095,0.675428571 5.66666667,0.836571429 L1.00704762,5.46342857 C0.929333333,5.54142857 0.829761905,5.58 0.730190476,5.58 Z" id="Shape"></path>
                </g>
                <path d="M22.0652651,17 L1.93473494,17 C0.868309042,17 0,16.1356194 0,15.0723001 L0,1.92769991 C0,0.864380641 0.868309042,0 1.93473494,0 L22.0652651,0 C23.131691,0 24,0.864380641 24,1.92769991 L24,15.0723001 C24,16.1356194 23.131691,17 22.0652651,17 Z M1.93473494,0.771079966 C1.29472462,0.771079966 0.773893977,1.29001678 0.773893977,1.92769991 L0.773893977,15.0723001 C0.773893977,15.7099832 1.29472462,16.22892 1.93473494,16.22892 L22.0652651,16.22892 C22.7052754,16.22892 23.226106,15.7099832 23.226106,15.0723001 L23.226106,1.92769991 C23.226106,1.29001678 22.7052754,0.771079966 22.0652651,0.771079966 L1.93473494,0.771079966 Z" id="Shape"></path>
                <path d="M11.5064195,11 C10.9910652,11 10.4757109,10.8265199 10.0835766,10.4803446 L0.132975588,1.68780686 C-0.0282179486,1.54572586 -0.045267265,1.29767283 0.0950021104,1.13361245 C0.236821424,0.970337037 0.480936635,0.955422456 0.642130171,1.0959335 L10.5927312,9.88768628 C11.0879363,10.324919 11.9249027,10.324919 12.4193329,9.88768628 L22.3575344,1.11006311 C22.517953,0.967982103 22.7620682,0.983681661 22.9046625,1.14774205 C23.0449318,1.31180243 23.0286575,1.55907048 22.867464,1.70193646 L12.9292625,10.4795596 C12.5363532,10.8265199 12.0217739,11 11.5064195,11 Z" id="Shape"></path>
            </g>
        </g>
    </g>
</svg>