<?xml version="1.0" encoding="UTF-8"?>
<svg width="20px" height="28px" viewBox="0 0 20 28" version="1.1" xmlns="http://www.w3.org/2000/svg" xmlns:xlink="http://www.w3.org/1999/xlink">
    <!-- Generator: Sketch 49.3 (51167) - http://www.bohemiancoding.com/sketch -->
    <title>placeholder</title>
    <desc>Created with Sketch.</desc>
    <defs></defs>
    <g id="Page-1" stroke="none" stroke-width="1" fill="none" fill-rule="evenodd">
        <g id="Desktop-Landscape-Copy-3" transform="translate(-84.000000, -814.000000)" fill="#FFFFFF" fill-rule="nonzero">
            <g id="placeholder" transform="translate(84.000000, 814.000000)">
                <path d="M10,0 C4.486,0 0,4.41590625 0,9.84375 C0,11.6776406 0.516055556,13.4673437 1.49272222,15.0200312 L9.43077778,27.6122109 C9.58283333,27.8534375 9.85072222,28 10.1388333,28 C10.1410556,28 10.1432222,28 10.1454444,28 C10.4360556,27.9977578 10.7045,27.8466563 10.8537778,27.6012188 L18.5895,14.8870313 C19.5122778,13.3671563 20,11.6232266 20,9.84375 C20,4.41590625 15.514,0 10,0 Z M17.1592222,14.0447344 L10.1262222,25.6039219 L2.90927778,14.1556406 C2.09633333,12.8632656 1.65555556,11.3722656 1.65555556,9.84375 C1.65555556,5.32054687 5.405,1.6296875 10,1.6296875 C14.595,1.6296875 18.3388889,5.32054687 18.3388889,9.84375 C18.3388889,11.3269297 17.9271667,12.7798125 17.1592222,14.0447344 Z" id="Shape"></path>
                <path d="M10,5 C7.243,5 5,7.243 5,10 C5,12.7393889 7.2065,15 10,15 C12.8279444,15 15,12.7092778 15,10 C15,7.243 12.757,5 10,5 Z M10,13.3444444 C8.15238889,13.3444444 6.65555556,11.8426111 6.65555556,10 C6.65555556,8.162 8.162,6.65555556 10,6.65555556 C11.838,6.65555556 13.3388889,8.162 13.3388889,10 C13.3388889,11.8157222 11.8768889,13.3444444 10,13.3444444 Z" id="Shape"></path>
            </g>
        </g>
    </g>
</svg>