<?xml version="1.0" encoding="UTF-8"?>
<svg width="15px" height="25px" viewBox="0 0 15 25" version="1.1" xmlns="http://www.w3.org/2000/svg" xmlns:xlink="http://www.w3.org/1999/xlink">
    <!-- Generator: Sketch 49.3 (51167) - http://www.bohemiancoding.com/sketch -->
    <title>smartphone-call</title>
    <desc>Created with Sketch.</desc>
    <defs></defs>
    <g id="Page-1" stroke="none" stroke-width="1" fill="none" fill-rule="evenodd">
        <g id="Desktop-Landscape-Copy-3" transform="translate(-87.000000, -659.000000)" fill="#FFFFFF" fill-rule="nonzero">
            <g id="smartphone-call" transform="translate(87.000000, 659.000000)">
                <path d="M13.2559512,0 L1.74404879,0 C0.784969506,0 0,0.759285714 0,1.68857143 L0,23.3107143 C-6.55256556e-16,24.24 0.784969506,25 1.74404879,25 L13.2559512,25 C14.2150305,25 15,24.2414286 15,23.3114286 L15,1.68857143 C15,0.759285714 14.2150305,0 13.2559512,0 Z M5.65856777,1.21714286 L9.34143223,1.21714286 C9.45799725,1.21714286 9.55242967,1.30857143 9.55242967,1.42214286 C9.55242967,1.535 9.45799725,1.62642857 9.34143223,1.62642857 L5.65856777,1.62642857 C5.54200275,1.62642857 5.44757033,1.535 5.44757033,1.42214286 C5.44757033,1.30857143 5.54200275,1.21714286 5.65856777,1.21714286 Z M7.5,24.1557143 C7.0182471,24.1557143 6.6279756,23.7778571 6.6279756,23.3107143 C6.6279756,22.8435714 7.0182471,22.4664286 7.5,22.4664286 C7.9817529,22.4664286 8.3720244,22.8435714 8.3720244,23.3107143 C8.3720244,23.7778571 7.9817529,24.1557143 7.5,24.1557143 Z M13.7863958,21.875 L1.21360417,21.875 L1.21360417,2.67785714 L13.7863958,2.67785714 L13.7863958,21.875 Z" id="Shape"></path>
            </g>
        </g>
    </g>
</svg>